<svg width="368" height="95" viewBox="0 0 368 95" fill="none" xmlns="http://www.w3.org/2000/svg">
<g id="Pumpkin_Logo_Blue">
<g id="Group 17">
<path id="Fill 1" fill-rule="evenodd" clip-rule="evenodd" d="M316.566 9.7759C316.566 14.6229 312.637 18.5519 307.791 18.5519C302.943 18.5519 299.014 14.6229 299.014 9.7759C299.014 4.9289 302.943 0.999901 307.791 0.999901C312.637 0.999901 316.566 4.9289 316.566 9.7759Z" fill="#F7D635"/>
<path id="Fill 4" fill-rule="evenodd" clip-rule="evenodd" d="M26.9623 39.814C19.7243 39.814 14.3853 45.514 14.3853 52.662C14.3853 59.719 19.8143 65.418 26.9623 65.418C34.1093 65.418 39.5383 59.719 39.5383 52.662C39.5383 45.514 34.1993 39.814 26.9623 39.814ZM30.1293 79.442C24.1573 79.442 19.0913 77.633 15.0193 73.2V94.461H0.000305176V27.51H14.1143V33.028H14.2043H14.3853C18.2763 28.143 23.8853 25.791 30.0383 25.791C45.5993 25.791 54.5563 38.548 54.5563 53.114C54.5563 67.138 44.7853 79.442 30.1293 79.442Z" fill="#F7D635"/>
<path id="Fill 6" fill-rule="evenodd" clip-rule="evenodd" d="M90.2441 79.4419V72.3849H90.0631C87.4391 77.8139 82.6451 79.3519 77.0361 79.3519C71.5161 79.3519 65.9071 77.4519 62.2881 73.0189C58.2171 67.9519 57.7641 63.7909 57.7641 57.5469V27.5099H72.7831V55.2859C72.7831 60.9859 74.0501 65.3289 80.8351 65.3289C87.0771 65.3289 89.4311 60.8949 89.4311 55.1049V27.5099H104.449V79.4419H90.2441Z" fill="#F7D635"/>
<path id="Fill 8" fill-rule="evenodd" clip-rule="evenodd" d="M171.984 79.4419V51.1509C171.984 45.6309 171.26 40.0219 164.294 40.0219C157.598 40.0219 155.969 44.7269 155.969 50.4259V79.4419H140.951V50.5169C140.951 45.3599 139.775 40.0219 133.442 40.0219C126.474 40.0219 124.937 45.2699 124.937 51.1509V79.4419H109.918V27.6269H123.942V32.9649H124.123C127.017 27.8079 132.265 25.9079 137.965 25.9079C144.48 25.9079 149.365 29.1659 152.441 34.8649C156.061 29.1659 161.579 25.9079 168.365 25.9079C173.341 25.9079 178.046 27.3559 181.573 30.9749C187.275 36.7649 187.002 42.7369 187.002 50.4259V79.4419H171.984Z" fill="#F7D635"/>
<path id="Fill 10" fill-rule="evenodd" clip-rule="evenodd" d="M219.311 39.814C212.073 39.814 206.735 45.514 206.735 52.662C206.735 59.719 212.164 65.418 219.311 65.418C226.458 65.418 231.886 59.719 231.886 52.662C231.886 45.514 226.549 39.814 219.311 39.814ZM222.478 79.442C216.506 79.442 211.44 77.633 207.369 73.2V94.461H192.35V27.51H206.463V33.028H206.554H206.735C210.624 28.143 216.234 25.791 222.386 25.791C237.949 25.791 246.906 38.548 246.906 53.114C246.906 67.138 237.134 79.442 222.478 79.442Z" fill="#F7D635"/>
<path id="Fill 12" fill-rule="evenodd" clip-rule="evenodd" d="M278.161 49.5854L297.281 79.5804H280.272L265.313 53.5654H265.132V79.4414H250.114V10.7724H265.132V45.6944H265.313L279.458 27.6024H297.281L278.161 49.5854Z" fill="#F7D635"/>
<path id="Fill 14" fill-rule="evenodd" clip-rule="evenodd" d="M300.281 79.4422H315.3V27.5522H300.281V79.4422Z" fill="#F7D635"/>
<path id="Fill 16" fill-rule="evenodd" clip-rule="evenodd" d="M352.357 79.4419V50.3089C352.357 44.6999 351.271 39.9049 344.485 39.9049C337.518 39.9049 335.889 44.4289 335.889 50.3999V79.4419H320.872V27.5099H334.895V32.8479H335.076C338.243 27.6909 342.676 25.7909 348.737 25.7909C352.99 25.7909 358.329 27.4189 361.585 30.1329C366.38 34.1139 367.376 40.4479 367.376 46.3289V79.4419H352.357Z" fill="#F7D635"/>
</g>
</g>
</svg>
